<?xml version="1.0" encoding="UTF-8"?><svg id="Calque_1" xmlns="http://www.w3.org/2000/svg" viewBox="0 0 361.53 361.53"><defs><style>.cls-1{letter-spacing:.04em;}.cls-2{stroke-width:2px;}.cls-2,.cls-3,.cls-4,.cls-5{fill:#47ac34;}.cls-2,.cls-5{stroke:#fff;stroke-miterlimit:10;}.cls-6{fill:#eadc76;}.cls-6,.cls-4{stroke-width:0px;}.cls-3{font-family:CaviarDreams, 'Caviar Dreams';font-size:17.54px;}.cls-7{letter-spacing:0em;}</style></defs><path class="cls-4" d="m73.22,20.91c-6,4.31-7.53,12.51-3.41,18.31.28.4.59.78.91,1.14-.58-1.61-.27-4.63,3.21-8.58,2.81-3.19,5.5-2.8,12.17-7.07,2.98-1.91,5.2-3.75,6.54-4.93-3.27,4.67-6.57,7.57-8.97,9.35-4.18,3.1-6.77,3.66-9.42,7.21-2.16,2.89-2.23,4.64-2.4,5.13,4.42,3.8,11.16,4.15,16.29.46,6-4.31,5.41-18.23,14.5-28.98,1.46-1.73-23.41,3.65-29.42,7.96Z"/><path class="cls-5" d="m69.26,27.17c3.99,3.81,4.27,10.04.62,13.91-.25.27-.52.52-.79.75.6-1.13.68-3.4-1.48-6.68-1.75-2.65-3.78-2.65-8.27-6.5-2.01-1.72-3.46-3.31-4.33-4.33,1.93,3.8,4.08,6.28,5.66,7.85,2.77,2.73,4.63,3.41,6.22,6.32,1.29,2.37,1.17,3.66,1.25,4.04-3.67,2.35-8.69,1.91-12.1-1.35-3.99-3.81-2.11-14.06-7.72-22.95-.9-1.44,16.95,5.14,20.94,8.95Z"/><rect class="cls-6" x="23.59" y="85.64" width="98.62" height="9.27" rx=".57" ry=".57"/><rect class="cls-6" x="15.12" y="104.02" width="115.56" height="9.27" rx=".57" ry=".57"/><rect class="cls-6" x="41.36" y="67.53" width="63.07" height="9.27" rx=".57" ry=".57"/><rect class="cls-6" x="53.85" y="49.04" width="38.1" height="9.27" rx=".57" ry=".57"/><rect class="cls-6" x="23.59" y="122.27" width="98.62" height="9.27" rx=".57" ry=".57"/><rect class="cls-6" x="41.36" y="140.38" width="63.07" height="9.27" rx=".57" ry=".57"/><rect class="cls-6" x="53.85" y="158.87" width="38.1" height="9.27" rx=".57" ry=".57"/><path class="cls-4" d="m302.38,252.38c-7.67,5.51-9.62,15.99-4.36,23.41.36.51.75,1,1.16,1.45-.74-2.06-.35-5.92,4.1-10.97,3.59-4.08,7.04-3.58,15.56-9.04,3.81-2.44,6.65-4.79,8.36-6.3-4.18,5.97-8.4,9.68-11.46,11.95-5.34,3.96-8.65,4.67-12.04,9.22-2.76,3.7-2.85,5.93-3.07,6.55,5.65,4.86,14.27,5.3,20.82.59,7.67-5.51,6.92-23.31,18.53-37.05,1.87-2.22-29.93,4.67-37.61,10.18Z"/><path class="cls-2" d="m287.32,248.33c-3.36,4.99-2.2,11.68,2.59,14.94.33.23.67.43,1.02.61-.9-1.07-1.52-3.46.01-7.46,1.24-3.23,3.4-3.7,7.28-8.85,1.73-2.3,2.91-4.34,3.59-5.62-1.17,4.49-2.87,7.64-4.19,9.67-2.31,3.55-4.13,4.71-5.14,8.18-.82,2.82-.38,4.17-.38,4.59,4.45,1.64,9.69,0,12.56-4.27,3.36-4.99-1.04-15.45,2.84-26.23.63-1.74-16.83,9.43-20.19,14.42Z"/><path class="cls-4" d="m181.33,250.18c7.67,5.51,9.62,15.99,4.36,23.41-.36.51-.75,1-1.16,1.45.74-2.06.35-5.92-4.1-10.97-3.59-4.08-7.04-3.58-15.56-9.04-3.81-2.44-6.65-4.79-8.36-6.3,4.18,5.97,8.4,9.68,11.46,11.95,5.34,3.96,8.65,4.67,12.04,9.22,2.76,3.7,2.85,5.93,3.07,6.55-5.65,4.86-14.27,5.3-20.82.59-7.67-5.51-6.92-23.31-18.53-37.05-1.87-2.22,29.93,4.67,37.61,10.18Z"/><path class="cls-2" d="m196.39,246.13c3.36,4.99,2.2,11.68-2.59,14.94-.33.23-.67.43-1.02.61.9-1.07,1.52-3.46-.01-7.46-1.24-3.23-3.4-3.7-7.28-8.85-1.73-2.3-2.91-4.34-3.59-5.62,1.17,4.49,2.87,7.64,4.19,9.67,2.31,3.55,4.13,4.71,5.14,8.18.82,2.82.38,4.17.38,4.59-4.45,1.64-9.69,0-12.56-4.27-3.36-4.99,1.04-15.45-2.84-26.23-.63-1.74,16.83,9.43,20.19,14.42Z"/><rect class="cls-6" x="196.29" y="268.36" width="88.55" height="8.32"/><rect class="cls-6" x="188.69" y="284.86" width="103.75" height="8.32"/><rect class="cls-6" x="212.25" y="252.11" width="56.62" height="8.32"/><rect class="cls-6" x="223.46" y="235.5" width="34.2" height="8.32"/><rect class="cls-6" x="196.29" y="301.25" width="88.55" height="8.32"/><rect class="cls-6" x="212.25" y="317.51" width="56.62" height="8.32"/><rect class="cls-6" x="223.46" y="334.11" width="34.2" height="8.32"/><text class="cls-3" transform="translate(157.11 220.38)"><tspan x="0" y="0">À </tspan><tspan class="cls-1" x="17.12" y="0">l</tspan><tspan x="21.1" y="0">’école des </tspan><tspan class="cls-7" x="108.72" y="0">a</tspan><tspan x="120.41" y="0">beilles</tspan></text><path class="cls-4" d="m158.04,65.6h-7.13l-2.87,7.89h-1.24l7.67-21.08,7.66,21.08h-1.22l-2.87-7.89Zm-.42-1.16l-3.14-8.64-3.14,8.64h6.28Zm-3.84-16.77l2.1,2.41h-1.08l-3.16-2.41h2.14Z"/><path class="cls-4" d="m149.25,84.54v20.6h-1.16v-20.6h1.16Z"/><path class="cls-4" d="m153.65,86.66c-.2-.04-.37-.14-.52-.3-.23-.22-.35-.5-.35-.82s.11-.59.34-.81c.23-.22.5-.33.82-.33s.59.11.82.33.34.49.34.81c0,.18-.03.35-.09.5l-1.26,2.55h-.84l.73-1.93Z"/><path class="cls-4" d="m160.09,102.77c1.09,1,2.39,1.49,3.89,1.49,1.61,0,2.99-.57,4.13-1.71.15-.15.28-.3.41-.45l1.22.44c-.22.31-.48.6-.76.89-1.38,1.38-3.05,2.07-5.01,2.07s-3.61-.69-5-2.07c-1.38-1.38-2.07-3.05-2.07-5.01s.69-3.61,2.07-5c1.38-1.38,3.05-2.07,5-2.07,1.67,0,3.14.5,4.39,1.51.21.17.41.36.62.57.08.08.15.15.22.23l-.88.88-8.24,8.24Zm7.39-9.03c-1-.77-2.17-1.16-3.5-1.16-1.61,0-2.98.57-4.12,1.71-1.14,1.14-1.71,2.51-1.71,4.13,0,1.33.39,2.5,1.16,3.5l8.18-8.18Zm-1.33-6.46l-3.16,2.41h-1.08l2.1-2.41h2.14Z"/><path class="cls-4" d="m183.68,102.1l1.22.44c-.22.31-.48.6-.76.89-1.38,1.38-3.05,2.07-5.01,2.07s-3.61-.69-5-2.07c-1.38-1.38-2.07-3.05-2.07-5.01s.69-3.61,2.07-5c1.38-1.38,3.05-2.07,5-2.07s3.63.69,5.01,2.07c.28.28.54.58.76.88l-1.22.45c-.13-.15-.27-.31-.41-.46-1.14-1.13-2.52-1.7-4.13-1.7s-2.98.57-4.12,1.71c-1.14,1.14-1.71,2.51-1.71,4.13s.57,2.99,1.71,4.13,2.52,1.71,4.12,1.71,2.99-.57,4.13-1.71c.15-.15.28-.3.41-.45Z"/><path class="cls-4" d="m194.29,91.35c1.96,0,3.62.69,5,2.07s2.07,3.05,2.07,5.01-.69,3.61-2.07,5c-1.38,1.38-3.05,2.07-5,2.07s-3.61-.69-5-2.07c-1.38-1.38-2.07-3.05-2.07-5s.69-3.63,2.07-5.01c1.38-1.38,3.05-2.07,5-2.07Zm-4.13,2.95c-1.14,1.14-1.71,2.52-1.71,4.13s.57,2.99,1.71,4.13c1.14,1.14,2.52,1.71,4.13,1.71s2.99-.57,4.13-1.71c1.14-1.14,1.71-2.51,1.71-4.13s-.57-2.99-1.71-4.13c-1.14-1.14-2.52-1.71-4.13-1.71s-2.99.57-4.13,1.71Z"/><path class="cls-4" d="m205.61,84.54v20.6h-1.16v-20.6h1.16Z"/><path class="cls-4" d="m211.88,102.77c1.09,1,2.39,1.49,3.89,1.49,1.61,0,2.99-.57,4.13-1.71.15-.15.28-.3.41-.45l1.22.44c-.22.31-.48.6-.76.89-1.38,1.38-3.05,2.07-5.01,2.07s-3.61-.69-5-2.07c-1.38-1.38-2.07-3.05-2.07-5.01s.69-3.61,2.07-5c1.38-1.38,3.05-2.07,5-2.07,1.67,0,3.14.5,4.39,1.51.21.17.41.36.62.57.08.08.15.15.22.23l-.88.88-8.24,8.24Zm7.39-9.03c-1-.77-2.17-1.16-3.5-1.16-1.61,0-2.98.57-4.12,1.71-1.14,1.14-1.71,2.51-1.71,4.13,0,1.33.39,2.5,1.16,3.5l8.18-8.18Z"/><path class="cls-4" d="m161.74,136.79h-1.16v-2.58c-.22.3-.47.59-.73.86-1.38,1.38-3.05,2.07-5.01,2.07s-3.61-.69-5-2.07c-1.38-1.38-2.07-3.05-2.07-5s.69-3.63,2.07-5.01,3.05-2.07,5-2.07,3.63.69,5.01,2.07c.27.27.51.56.73.86v-9.75h1.16v20.6Zm-1.16-5.56v-2.29c-.21-1.13-.75-2.13-1.61-2.99-1.14-1.14-2.52-1.71-4.13-1.71s-2.99.57-4.13,1.71-1.71,2.52-1.71,4.13.57,2.99,1.71,4.13c1.14,1.14,2.52,1.71,4.13,1.71s2.99-.57,4.13-1.71c.86-.86,1.4-1.85,1.61-2.97Z"/><path class="cls-4" d="m168.01,134.42c1.09,1,2.39,1.49,3.89,1.49,1.61,0,2.99-.57,4.13-1.71.15-.15.28-.3.41-.45l1.22.44c-.22.31-.48.6-.76.89-1.38,1.38-3.05,2.07-5.01,2.07s-3.61-.69-5-2.07c-1.38-1.38-2.07-3.05-2.07-5.01s.69-3.61,2.07-5c1.38-1.38,3.05-2.07,5-2.07,1.67,0,3.14.5,4.39,1.51.21.17.41.36.62.57.08.08.15.15.22.23l-.88.88-8.24,8.24Zm7.39-9.03c-1-.77-2.17-1.16-3.5-1.16-1.61,0-2.98.57-4.12,1.71-1.14,1.14-1.71,2.51-1.71,4.13,0,1.33.39,2.5,1.16,3.5l8.18-8.18Z"/><path class="cls-4" d="m184.23,130.29c-.99-.53-1.67-.99-2.05-1.36-.59-.59-.89-1.31-.89-2.14s.3-1.56.89-2.16c.59-.6,1.3-.9,2.14-.9s1.54.27,2.09.82c.53.54.8,1.15.8,1.84v.06l-1,.4c-.09-.65-.29-1.14-.61-1.47-.32-.33-.74-.49-1.27-.49s-.96.18-1.33.55-.55.81-.55,1.33.18.96.55,1.33c.21.21.67.54,1.37.98,1.1.6,1.88,1.13,2.34,1.6.73.74,1.09,1.62,1.09,2.64s-.36,1.94-1.09,2.67c-.73.73-1.61,1.1-2.65,1.1s-1.92-.37-2.65-1.1c-.73-.73-1.09-1.54-1.09-2.41l1.15-.3c0,.76.26,1.39.77,1.89.51.51,1.12.76,1.84.76s1.32-.25,1.83-.76c.51-.51.77-1.12.77-1.85s-.25-1.32-.76-1.83c-.27-.27-.83-.68-1.66-1.21Z"/><path class="cls-4" d="m161.74,168.44h-1.16v-2.58c-.22.3-.47.59-.73.86-1.38,1.38-3.05,2.07-5.01,2.07s-3.61-.69-5-2.07c-1.38-1.38-2.07-3.05-2.07-5s.69-3.63,2.07-5.01,3.05-2.07,5-2.07,3.63.69,5.01,2.07c.27.27.51.56.73.86v-1.79h1.16v12.65Zm-1.16-5.56v-2.29c-.21-1.13-.75-2.13-1.61-2.99-1.14-1.14-2.52-1.71-4.13-1.71s-2.99.57-4.13,1.71-1.71,2.52-1.71,4.13.57,2.99,1.71,4.13c1.14,1.14,2.52,1.71,4.13,1.71s2.99-.57,4.13-1.71c.86-.86,1.4-1.85,1.61-2.97Z"/><path class="cls-4" d="m165.66,147.83h1.16v9.74c.21-.29.46-.58.73-.85,1.38-1.38,3.05-2.07,5-2.07s3.62.69,5,2.07,2.07,3.05,2.07,5.01-.69,3.61-2.07,5c-1.38,1.38-3.05,2.07-5,2.07s-3.61-.69-5-2.07c-.27-.27-.52-.56-.73-.85v2.56h-1.16v-20.6Zm1.16,12.68v2.42c.22,1.1.76,2.07,1.6,2.91,1.14,1.14,2.52,1.71,4.13,1.71s2.99-.57,4.13-1.71c1.14-1.14,1.71-2.51,1.71-4.13s-.57-2.99-1.71-4.13c-1.14-1.14-2.52-1.71-4.13-1.71s-2.99.57-4.13,1.71c-.84.84-1.37,1.82-1.6,2.92Z"/><path class="cls-4" d="m185.57,166.07c1.09,1,2.39,1.49,3.89,1.49,1.61,0,2.99-.57,4.13-1.71.15-.15.28-.3.41-.45l1.22.44c-.22.31-.48.6-.76.89-1.38,1.38-3.05,2.07-5.01,2.07s-3.61-.69-5-2.07c-1.38-1.38-2.07-3.05-2.07-5.01s.69-3.61,2.07-5c1.38-1.38,3.05-2.07,5-2.07,1.67,0,3.14.5,4.39,1.51.21.17.41.36.62.57.08.08.15.15.22.23l-.88.88-8.24,8.24Zm7.39-9.03c-1-.77-2.17-1.16-3.5-1.16-1.61,0-2.98.57-4.12,1.71-1.14,1.14-1.71,2.51-1.71,4.13,0,1.33.39,2.5,1.16,3.5l8.18-8.18Z"/><path class="cls-4" d="m199.98,151.64c.23.22.34.49.34.81s-.11.6-.34.82c-.23.22-.5.33-.82.33s-.59-.11-.82-.33c-.23-.22-.34-.5-.34-.82s.11-.59.34-.81c.23-.22.5-.33.82-.33s.59.11.82.33Zm-.24,4.15v12.65h-1.16v-12.65h1.16Z"/><path class="cls-4" d="m205.02,147.83v20.6h-1.16v-20.6h1.16Z"/><path class="cls-4" d="m210.04,147.83v20.6h-1.16v-20.6h1.16Z"/><path class="cls-4" d="m216.31,166.07c1.09,1,2.39,1.49,3.89,1.49,1.61,0,2.99-.57,4.13-1.71.15-.15.28-.3.41-.45l1.22.44c-.22.31-.48.6-.76.89-1.38,1.38-3.05,2.07-5.01,2.07s-3.61-.69-5-2.07c-1.38-1.38-2.07-3.05-2.07-5.01s.69-3.61,2.07-5c1.38-1.38,3.05-2.07,5-2.07,1.67,0,3.14.5,4.39,1.51.21.17.41.36.62.57.08.08.15.15.22.23l-.88.88-8.24,8.24Zm7.39-9.03c-1-.77-2.17-1.16-3.5-1.16-1.61,0-2.98.57-4.12,1.71-1.14,1.14-1.71,2.51-1.71,4.13,0,1.33.39,2.5,1.16,3.5l8.18-8.18Z"/><path class="cls-4" d="m232.54,161.93c-.99-.53-1.67-.99-2.05-1.36-.59-.59-.89-1.31-.89-2.14s.3-1.56.89-2.16c.59-.6,1.3-.9,2.14-.9s1.54.27,2.09.82c.53.54.8,1.15.8,1.84v.06l-1,.4c-.09-.65-.29-1.14-.61-1.47-.32-.33-.74-.49-1.27-.49s-.96.18-1.33.55-.55.81-.55,1.33.18.96.55,1.33c.21.21.67.54,1.37.98,1.1.6,1.88,1.13,2.34,1.6.73.74,1.09,1.62,1.09,2.64s-.36,1.94-1.09,2.67c-.73.73-1.61,1.1-2.65,1.1s-1.92-.37-2.65-1.1c-.73-.73-1.09-1.54-1.09-2.41l1.15-.3c0,.76.26,1.39.77,1.89.51.51,1.12.76,1.84.76s1.32-.25,1.83-.76c.51-.51.77-1.12.77-1.85s-.25-1.32-.76-1.83c-.27-.27-.83-.68-1.66-1.21Z"/></svg>