<?xml version="1.0" encoding="UTF-8"?><svg id="Calque_1" xmlns="http://www.w3.org/2000/svg" viewBox="0 0 500 500"><defs><style>.cls-1{stroke:#36a9e1;}.cls-1,.cls-2{fill:none;stroke-miterlimit:10;}.cls-2{stroke:#e71d73;}.cls-3{fill:#1d1d1b;stroke-width:0px;}</style></defs><line class="cls-1" x1="26.3" y1="-7.93" x2="26.3" y2="519.1"/><line class="cls-1" x1="382.73" y1="-7.93" x2="382.73" y2="519.1"/><line class="cls-2" x1="-11.33" y1="126.23" x2="519.73" y2="126.23"/><line class="cls-2" x1="221.01" y1="503.59" x2="221.01" y2="-27.47"/><line class="cls-2" x1="-11.33" y1="29.21" x2="519.73" y2="29.21"/><polyline class="cls-1" points="200.5 126.94 200.5 300.55 26.88 300.55"/><line class="cls-1" x1="26.88" y1="300.55" x2="200.5" y2="126.94"/><line class="cls-1" x1="26.37" y1="126.43" x2="200.5" y2="300.55"/><polyline class="cls-1" points="221.69 564.97 221.69 404.34 382.32 404.34"/><line class="cls-1" x1="382.32" y1="404.34" x2="221.69" y2="564.97"/><line class="cls-1" x1="382.79" y1="565.45" x2="221.69" y2="404.34"/><line class="cls-2" x1="200.58" y1="503.59" x2="200.58" y2="-27.47"/><path class="cls-3" d="m63.32,47.76c-.03.67-.05,1.3-.05,1.87-.03.51-.05,1.02-.05,1.51s-.02.87-.05,1.13c-.19,2.21-.79,4.26-1.8,6.14-1.01,1.89-2.3,3.51-3.89,4.87s-3.41,2.42-5.47,3.19c-2.06.77-4.23,1.15-6.5,1.15-2.5,0-4.85-.48-7.06-1.44s-4.14-2.26-5.8-3.91c-1.66-1.65-2.97-3.58-3.94-5.78-.97-2.21-1.45-4.56-1.45-7.06s.48-4.86,1.45-7.08c.97-2.22,2.28-4.16,3.94-5.81,1.66-1.65,3.59-2.95,5.8-3.91s4.56-1.44,7.06-1.44c3.17,0,6.07.74,8.71,2.21,2.64,1.47,4.78,3.44,6.41,5.9l-5.76,3.5c-1.02-1.5-2.36-2.77-4.01-3.79-1.65-1.02-3.43-1.54-5.35-1.54-1.6,0-3.1.33-4.49.98-1.39.66-2.61,1.53-3.65,2.62-1.04,1.09-1.86,2.36-2.47,3.82-.61,1.46-.91,2.97-.91,4.54s.3,3.12.91,4.56c.61,1.44,1.43,2.7,2.47,3.79,1.04,1.09,2.26,1.96,3.65,2.62,1.39.66,2.89.98,4.49.98,1.22,0,2.38-.18,3.5-.55,1.12-.37,2.14-.89,3.07-1.56.93-.67,1.74-1.47,2.42-2.4.69-.93,1.19-1.95,1.51-3.07h-12.96v-6.05h20.26Z"/><path class="cls-3" d="m75.65,66.96h-6.72V31.83h15.96c1.8,0,3.44.3,4.93.89,1.49.59,2.76,1.42,3.82,2.5,1.06,1.07,1.88,2.35,2.48,3.84.59,1.49.89,3.11.89,4.87,0,2.66-.67,4.98-2,6.96-1.33,1.98-3.1,3.41-5.31,4.27,2.95,3.9,5.87,7.84,8.75,11.81h-8.02c-1.4-1.82-2.77-3.66-4.11-5.52-1.34-1.86-2.68-3.74-4.02-5.66h-6.65v11.18Zm0-17.14h9.23c.61,0,1.24-.12,1.89-.36.65-.24,1.24-.61,1.75-1.1s.93-1.11,1.27-1.85c.33-.74.5-1.6.5-2.59,0-.51-.06-1.12-.19-1.82-.13-.7-.38-1.38-.77-2.02-.38-.64-.92-1.18-1.63-1.63-.7-.45-1.64-.67-2.82-.67h-9.23v12.05Z"/><path class="cls-3" d="m111.17,66.96h-6.72V31.87h6.72v35.09Z"/><path class="cls-3" d="m145.11,61.01v5.95h-25.3V31.83h6.72v29.18h18.58Z"/><path class="cls-3" d="m174.63,61.01v5.95h-25.3V31.83h6.72v29.18h18.58Z"/><path class="cls-3" d="m185.57,37.78v8.78h16.99v6.1h-16.99v8.26h19.15v6.05h-25.87V31.83h25.87v5.95h-19.15Z"/><path class="cls-3" d="m241.9,66.96h-13.85V31.83h13.85c5.02,0,9.14,1.47,12.37,4.42,1.73,1.57,3.03,3.46,3.91,5.69.88,2.22,1.32,4.71,1.32,7.46s-.44,5.29-1.32,7.51c-.88,2.22-2.18,4.12-3.91,5.69-1.57,1.44-3.4,2.53-5.49,3.26-2.09.74-4.39,1.1-6.88,1.1Zm-7.13-5.95h7.15c1.25,0,2.51-.14,3.79-.43,1.28-.29,2.44-.86,3.48-1.7,1.04-.85,1.9-2.02,2.57-3.53.67-1.5,1.01-3.47,1.01-5.9s-.34-4.41-1.01-5.93c-.67-1.52-1.54-2.7-2.59-3.53-1.06-.83-2.22-1.39-3.5-1.68-1.28-.29-2.53-.43-3.74-.43h-7.15v23.14Z"/><path class="cls-3" d="m271.01,37.78v8.78h16.99v6.1h-16.99v8.26h19.15v6.05h-25.87V31.83h25.87v5.95h-19.15Z"/><path class="cls-3" d="m62.13,89.47v35.09h-6.72v-17.76l-10.99,13.2-10.94-13.2v17.76h-6.72v-35.09h.43l17.23,20.26,17.28-20.26h.43Z"/><path class="cls-3" d="m77.31,124.56h-6.73v-35.09h6.73v35.09Z"/><path class="cls-3" d="m84.56,119.95l3.65-5.38c1.76,1.22,3.58,2.26,5.45,3.14,1.87.88,3.83,1.32,5.88,1.32,1.09,0,2.05-.14,2.88-.41.83-.27,1.54-.62,2.11-1.06.58-.43,1.01-.93,1.3-1.49.29-.56.43-1.11.43-1.66,0-.7-.22-1.3-.65-1.8-.43-.5-1.01-.9-1.73-1.22-.72-.32-1.57-.59-2.55-.82-.98-.22-1.99-.43-3.05-.62-.7-.13-1.52-.28-2.45-.46-.93-.18-1.89-.42-2.88-.72-.99-.3-1.97-.7-2.93-1.2s-1.83-1.12-2.59-1.87c-.77-.75-1.39-1.65-1.85-2.69-.46-1.04-.7-2.26-.7-3.67,0-2.05.42-3.75,1.25-5.11.83-1.36,1.9-2.43,3.19-3.22,1.3-.78,2.74-1.33,4.32-1.66s3.11-.48,4.59-.48,2.79.1,3.94.29c1.15.19,2.23.47,3.22.84.99.37,1.96.83,2.91,1.39.94.56,1.96,1.22,3.05,1.99l-3.75,5.28c-1.67-1.15-3.27-2.03-4.8-2.64-1.54-.61-3.15-.91-4.85-.91-.58,0-1.23.07-1.97.22-.74.14-1.43.38-2.09.7-.66.32-1.2.73-1.63,1.22-.43.5-.65,1.1-.65,1.8s.26,1.3.77,1.78c.51.48,1.17.88,1.97,1.2.8.32,1.68.59,2.64.82.96.22,1.89.45,2.79.67.67.16,1.46.32,2.38.48.91.16,1.86.38,2.83.67.98.29,1.95.67,2.91,1.15.96.48,1.82,1.1,2.57,1.85.75.75,1.36,1.68,1.83,2.78.46,1.1.7,2.44.7,4.01,0,1.82-.32,3.41-.96,4.75-.64,1.34-1.55,2.46-2.74,3.34-1.19.88-2.59,1.54-4.23,1.99-1.63.45-3.44.67-5.43.67-1.83,0-3.43-.14-4.83-.41-1.39-.27-2.67-.64-3.82-1.1-1.15-.46-2.24-1.02-3.27-1.66-1.03-.64-2.08-1.34-3.17-2.11Z"/><path class="cls-3" d="m125.34,95.38v8.78h17v6.1h-17v8.26h19.17v6.05h-25.89v-35.14h25.89v5.95h-19.17Z"/><path class="cls-3" d="m174.58,95.38v8.78h17v6.1h-17v8.26h19.17v6.05h-25.89v-35.14h25.89v5.95h-19.17Z"/><path class="cls-3" d="m230.5,124.56l-23.11-20.88v20.88h-6.73v-35.09h.72l23.11,21.22v-21.22h6.73v35.09h-.72Z"/><path class="cls-3" d="m270.99,89.43c1.73,0,3.35.33,4.88.98,1.52.66,2.84,1.54,3.96,2.66,1.12,1.12,2.01,2.44,2.67,3.96.66,1.52.98,3.14.98,4.87s-.29,3.33-.86,4.8c-.58,1.47-1.43,2.76-2.55,3.86-1.12,1.1-2.54,1.97-4.25,2.59-1.71.62-3.69.94-5.93.94h-7.83v10.46h-6.73v-35.14h15.66Zm0,18.62c.99,0,1.86-.17,2.59-.5.74-.34,1.34-.79,1.8-1.37.46-.58.81-1.23,1.03-1.97.22-.74.34-1.5.34-2.3s-.14-1.59-.43-2.38c-.29-.78-.7-1.48-1.25-2.09-.55-.61-1.22-1.1-2.02-1.49-.8-.38-1.73-.58-2.79-.58h-8.21v12.67h8.93Z"/><path class="cls-3" d="m279.35,124.56l17.97-35.09h.67l17.97,35.09h-7.3l-2.74-5.52h-16.57l-2.69,5.52h-7.3Zm13.26-11.38h10.04l-5-10.61-5.04,10.61Z"/><path class="cls-3" d="m351.98,105.36c-.03.67-.05,1.3-.05,1.87-.03.51-.05,1.02-.05,1.51s-.02.87-.05,1.13c-.19,2.21-.79,4.26-1.8,6.14-1.01,1.89-2.31,3.51-3.89,4.87s-3.41,2.42-5.48,3.19c-2.07.77-4.24,1.15-6.51,1.15-2.5,0-4.85-.48-7.06-1.44-2.21-.96-4.14-2.26-5.8-3.91-1.66-1.65-2.97-3.58-3.94-5.78-.97-2.21-1.45-4.56-1.45-7.06s.48-4.86,1.45-7.08c.97-2.22,2.28-4.16,3.94-5.81,1.66-1.65,3.59-2.95,5.8-3.91,2.21-.96,4.56-1.44,7.06-1.44,3.17,0,6.08.74,8.72,2.21,2.64,1.47,4.78,3.44,6.41,5.9l-5.76,3.5c-1.03-1.5-2.36-2.77-4.01-3.79-1.65-1.02-3.43-1.54-5.36-1.54-1.6,0-3.1.33-4.49.98-1.39.66-2.61,1.53-3.65,2.62-1.04,1.09-1.87,2.36-2.47,3.82-.61,1.46-.91,2.97-.91,4.54s.3,3.12.91,4.56c.61,1.44,1.43,2.7,2.47,3.79,1.04,1.09,2.26,1.96,3.65,2.62,1.39.66,2.89.98,4.49.98,1.22,0,2.39-.18,3.51-.55,1.12-.37,2.15-.89,3.07-1.56.93-.67,1.74-1.47,2.43-2.4.69-.93,1.19-1.95,1.51-3.07h-12.97v-6.05h20.27Z"/><path class="cls-3" d="m364.32,95.38v8.78h17v6.1h-17v8.26h19.17v6.05h-25.89v-35.14h25.89v5.95h-19.17Z"/></svg>