<?xml version="1.0" encoding="UTF-8"?><svg id="Calque_1" xmlns="http://www.w3.org/2000/svg" viewBox="0 0 361.53 361.53"><defs><style>.cls-1{letter-spacing:.04em;}.cls-2{fill:#faf199;}.cls-2,.cls-3,.cls-4,.cls-5{stroke-width:0px;}.cls-3{fill:#fff;}.cls-4{fill:#ffe900;}.cls-4,.cls-6,.cls-5{opacity:.45;}.cls-6{fill:none;stroke:#48ac33;stroke-miterlimit:10;stroke-width:3px;}.cls-7{fill:#009640;font-family:CaviarDreams, 'Caviar Dreams';font-size:13.13px;}.cls-8{letter-spacing:0em;}.cls-5{fill:#48ac33;}</style></defs><path class="cls-4" d="m243.71,35.12c-6.94-5.78-22.79-2.72-22.79-2.72,0,0-.12,16.14,6.82,21.91,6.94,5.78,16.14,6.16,20.55.86,4.41-5.3,2.36-14.28-4.58-20.05Z"/><rect class="cls-3" x="217.95" y="38.11" width="23.83" height="3.13" transform="translate(52.34 191) rotate(-50.24)"/><rect class="cls-3" x="217.04" y="34.18" width="15.49" height="3.13" transform="translate(53.54 185.68) rotate(-50.24)"/><rect class="cls-3" x="221.35" y="42.36" width="27.27" height="3.13" transform="translate(50.92 196.47) rotate(-50.24)"/><rect class="cls-3" x="226.48" y="46.83" width="27.68" height="3.13" transform="translate(49.41 202.18) rotate(-50.24)"/><rect class="cls-3" x="233.11" y="51.25" width="24.39" height="3.13" transform="translate(47.81 207.61) rotate(-50.24)"/><path class="cls-2" d="m131.49,294.98c-9.33-9.14-32.53-6.6-32.53-6.6,0,0-2.08,23.25,7.25,32.39,9.33,9.14,22.54,10.78,29.52,3.66,6.98-7.12,5.08-20.3-4.25-29.45Z"/><rect class="cls-3" x="93.75" y="297.65" width="34.46" height="4.52" transform="translate(-180.88 169.22) rotate(-45.57)"/><rect class="cls-3" x="92.94" y="291.39" width="22.4" height="4.52" transform="translate(-178.46 162.45) rotate(-45.57)"/><rect class="cls-3" x="98.15" y="304.39" width="39.44" height="4.52" transform="translate(-183.62 176.15) rotate(-45.57)"/><rect class="cls-3" x="105.02" y="311.46" width="40.04" height="4.52" transform="translate(-186.52 183.39) rotate(-45.57)"/><rect class="cls-3" x="114.06" y="318.41" width="35.28" height="4.52" transform="translate(-189.49 190.24) rotate(-45.57)"/><path class="cls-5" d="m95.44,70.14c5.36-17.93,27.98-27.01,27.98-27.01,0,0,13.93,20,8.56,37.94-.08.28-.17.56-.26.83-7.68,23.02-42.74,12.54-36.52-10.92.07-.28.15-.56.24-.84Z"/><path class="cls-4" d="m113.58,58.55c-.15-.38-.3-.76-.46-1.14-10.31-24.31-43.52-33.69-43.52-33.69,0,0-16.49,30.04-6.18,54.36.16.38.33.76.5,1.13,14.36,31.1,62.03,11.27,49.67-20.65Zm-36.71-18.75s2.7.87,6.33,2.49l-9.14,3.51c1.48-3.59,2.81-6,2.81-6Zm-4.66,11.06l15.95-6.12c1.54.84,3.1,1.77,4.6,2.81l-21.89,8.39c.35-1.74.82-3.46,1.33-5.08Zm-1.96,9.67l26.25-10.06c1.26,1.13,2.4,2.35,3.33,3.64l-29.39,11.27c-.25-1.55-.29-3.18-.19-4.84Zm1.36,8.74l30.16-11.56c.62,1.6,1.08,3.21,1.38,4.8l-29.11,11.16c-.92-1.35-1.74-2.82-2.43-4.4Zm9.12,11.09c-1.41-.93-2.76-2.07-4.01-3.37l26.87-10.3c.03,1.77-.13,3.49-.49,5.1l-22.37,8.58Zm13.86,2.16c-2.78,1.07-5.8,1.08-8.75.23l15.26-5.85c-1.53,2.57-3.73,4.55-6.51,5.62Z"/><path class="cls-6" d="m136.18,325.46c10.44-8.51,12.97-30.24,1.59-42.7-.31-.34-.63-.68-.96-1.01-20.82-21.37-59.47-17.48-59.47-17.48,0,0-4.9,38.54,15.92,59.91.33.33.65.66.99.98,12.32,11.87,33.3,9.8,41.93.3"/><path class="cls-5" d="m261.68,91.52c-10.71-11-8.19-30.83-8.19-30.83,0,0,19.89-2,30.61,9,.17.17.33.35.49.52,13.44,14.69-8.06,35.64-22.4,21.82-.17-.17-.34-.33-.51-.51Z"/><path class="cls-5" d="m241.99,90.68c-.17.17-.35.33-.52.49-14.74,13.38-35.61-8.19-21.74-22.47.17-.17.34-.34.51-.51,11.04-10.68,30.86-8.08,30.86-8.08,0,0,1.93,19.9-9.11,30.57Z"/><path class="cls-5" d="m283.19,50.91c-11.04,10.68-30.86,8.08-30.86,8.08,0,0-1.93-19.9,9.11-30.57.17-.17.35-.33.52-.49,14.74-13.38,35.61,8.19,21.74,22.47-.17.17-.34.34-.51.51Z"/><text class="cls-7" transform="translate(36.99 114.85)"><tspan x="0" y="0">À </tspan><tspan class="cls-1" x="12.81" y="0">l</tspan><tspan x="15.79" y="0">’école des </tspan><tspan class="cls-8" x="81.38" y="0">a</tspan><tspan x="90.13" y="0">beilles</tspan></text><text class="cls-7" transform="translate(184.01 115.86)"><tspan x="0" y="0">À </tspan><tspan class="cls-1" x="12.81" y="0">l</tspan><tspan x="15.79" y="0">’école des </tspan><tspan class="cls-8" x="81.38" y="0">a</tspan><tspan x="90.13" y="0">beilles</tspan></text><path class="cls-5" d="m105.6,204.83c5.36-17.93,27.98-27.01,27.98-27.01,0,0,13.93,20,8.56,37.94-.08.28-.17.56-.26.83-7.68,23.02-42.74,12.54-36.52-10.92.07-.28.15-.56.24-.84Z"/><path class="cls-4" d="m123.74,193.25c-.15-.38-.3-.76-.46-1.14-10.31-24.31-43.52-33.69-43.52-33.69,0,0-16.49,30.04-6.18,54.36.16.38.33.76.5,1.13,14.36,31.1,62.03,11.27,49.67-20.65Zm-36.71-18.75s2.7.87,6.33,2.49l-9.14,3.51c1.48-3.59,2.81-6,2.81-6Zm-4.66,11.06l15.95-6.12c1.54.84,3.1,1.77,4.6,2.81l-21.89,8.39c.35-1.74.82-3.46,1.33-5.08Zm-1.96,9.67l26.25-10.06c1.26,1.13,2.4,2.35,3.33,3.64l-29.39,11.27c-.25-1.55-.29-3.18-.19-4.84Zm1.36,8.74l30.16-11.56c.62,1.6,1.08,3.21,1.38,4.8l-29.11,11.16c-.92-1.35-1.74-2.82-2.43-4.4Zm9.12,11.09c-1.41-.93-2.76-2.07-4.01-3.37l26.87-10.3c.03,1.77-.13,3.49-.49,5.1l-22.37,8.58Zm13.86,2.16c-2.78,1.07-5.8,1.08-8.75.23l15.26-5.85c-1.53,2.57-3.73,4.55-6.51,5.62Z"/><text class="cls-7" transform="translate(159.32 211.72)"><tspan x="0" y="0">À </tspan><tspan class="cls-1" x="12.81" y="0">l</tspan><tspan x="15.79" y="0">’école des </tspan><tspan class="cls-8" x="81.38" y="0">a</tspan><tspan x="90.13" y="0">beilles</tspan></text><text class="cls-7" transform="translate(159.32 307.15)"><tspan x="0" y="0">À </tspan><tspan class="cls-1" x="12.81" y="0">l</tspan><tspan x="15.79" y="0">’école des </tspan><tspan class="cls-8" x="81.38" y="0">a</tspan><tspan x="90.13" y="0">beilles</tspan></text></svg>