<?xml version="1.0" encoding="UTF-8"?><svg id="Calque_1" xmlns="http://www.w3.org/2000/svg" viewBox="0 0 500 500"><defs><style>.cls-1{fill:#eadc76;}.cls-1,.cls-2,.cls-3{stroke-width:0px;}.cls-2{fill:#d60b52;}.cls-3,.cls-4{fill:#47ac34;}.cls-4{stroke:#fff;stroke-miterlimit:10;}.cls-5{opacity:.25;}</style></defs><g class="cls-5"><path class="cls-3" d="m250.95,45.02c-17.71,12.72-22.21,36.91-10.06,54.04.84,1.18,1.74,2.3,2.69,3.35-1.71-4.76-.8-13.66,9.46-25.32,8.28-9.41,16.24-8.27,35.91-20.86,8.79-5.62,15.35-11.06,19.3-14.55-9.64,13.78-19.38,22.33-26.45,27.58-12.33,9.15-19.97,10.79-27.79,21.29-6.36,8.54-6.57,13.68-7.09,15.13,13.05,11.21,32.93,12.23,48.06,1.37,17.71-12.72,15.98-53.8,42.77-85.51,4.32-5.11-69.08,10.78-86.8,23.49Z"/><path class="cls-4" d="m239.27,63.52c11.79,11.25,12.61,29.63,1.83,41.04-.74.79-1.53,1.52-2.34,2.2,1.76-3.35,2.01-10.03-4.37-19.73-5.15-7.83-11.16-7.81-24.41-19.17-5.92-5.08-10.21-9.78-12.77-12.78,5.7,11.2,12.03,18.54,16.71,23.16,8.18,8.05,13.66,10.06,18.36,18.64,3.82,6.98,3.44,10.81,3.68,11.93-10.82,6.94-25.64,5.63-35.71-3.98-11.79-11.25-6.23-41.48-22.77-67.73-2.67-4.23,50.01,15.15,61.8,26.41Z"/><rect class="cls-1" x="104.5" y="236.03" width="291.01" height="27.36" rx=".57" ry=".57"/><rect class="cls-1" x="79.52" y="290.26" width="340.96" height="27.36" rx=".57" ry=".57"/><rect class="cls-1" x="156.95" y="182.6" width="186.09" height="27.36" rx=".57" ry=".57"/><rect class="cls-1" x="193.8" y="128.04" width="112.41" height="27.36" rx=".57" ry=".57"/><rect class="cls-1" x="104.5" y="344.11" width="291.01" height="27.36" rx=".57" ry=".57"/><rect class="cls-1" x="156.95" y="397.54" width="186.09" height="27.36" rx=".57" ry=".57"/><rect class="cls-1" x="193.8" y="452.1" width="112.41" height="27.36" rx=".57" ry=".57"/></g><path class="cls-2" d="m221.23,146.62l28.24-55.21h1.06l28.25,55.21h-11.48l-4.31-8.69h-26.05l-4.23,8.69h-11.48Zm23.41-69.33l-8.69,3.78,10.12,7.63h7.4l-8.84-11.4Zm-2.57,51.43h15.78l-7.86-16.69-7.93,16.69Z"/><path class="cls-2" d="m129.39,234.03v9.37h-39.8v-55.28h10.57v45.92h29.23Z"/><path class="cls-2" d="m142.61,191.74c.35,1.46.41,2.98.19,4.57-.23,1.59-.74,3.08-1.55,4.49-.81,1.41-1.88,2.63-3.21,3.66-1.33,1.03-2.88,1.75-4.64,2.15l-1.28-2.72c1.61-.55,2.83-1.32,3.66-2.3s1.35-2.1,1.55-3.36c-1.56.1-2.89-.38-4-1.43-1.11-1.06-1.69-2.34-1.74-3.85-.1-1.56.36-2.89,1.4-4,1.03-1.1,2.33-1.71,3.89-1.81,1.41-.05,2.63.34,3.66,1.17s1.73,1.98,2.08,3.44Z"/><path class="cls-2" d="m161.11,197.48v13.82h26.74v9.59h-26.74v12.99h30.14v9.52h-40.71v-55.28h40.71v9.37h-30.14Zm11.48-23.41l8.76,3.78-10.12,7.63h-7.48l8.84-11.4Z"/><path class="cls-2" d="m251.21,229.8c-1.21,2.22-2.69,4.22-4.45,6-1.76,1.79-3.71,3.32-5.85,4.61-2.14,1.29-4.46,2.28-6.95,2.98s-5.07,1.06-7.74,1.06c-3.93,0-7.63-.76-11.1-2.27-3.47-1.51-6.51-3.56-9.1-6.16-2.6-2.59-4.64-5.63-6.16-9.1-1.51-3.48-2.27-7.18-2.27-11.1s.76-7.63,2.27-11.1c1.51-3.47,3.56-6.51,6.16-9.1,2.59-2.6,5.63-4.64,9.1-6.16,3.47-1.51,7.18-2.27,11.1-2.27,2.67,0,5.25.35,7.74,1.06,2.49.71,4.81,1.7,6.95,2.98,2.14,1.28,4.09,2.82,5.85,4.61,1.76,1.79,3.25,3.76,4.45,5.93l-9.89,4c-.81-1.21-1.75-2.34-2.83-3.4-1.09-1.06-2.28-1.99-3.59-2.8-1.31-.8-2.7-1.43-4.16-1.89s-2.97-.68-4.53-.68c-2.52,0-4.87.52-7.06,1.55s-4.09,2.4-5.7,4.12c-1.61,1.71-2.9,3.71-3.85,6-.96,2.29-1.44,4.67-1.44,7.14s.48,4.91,1.44,7.17c.95,2.27,2.24,4.26,3.85,5.97,1.61,1.71,3.51,3.08,5.7,4.12,2.19,1.03,4.54,1.55,7.06,1.55,1.56,0,3.07-.23,4.53-.68,1.46-.45,2.84-1.08,4.16-1.89,1.31-.81,2.5-1.75,3.59-2.83,1.08-1.08,2.02-2.23,2.83-3.43l9.89,4Z"/><path class="cls-2" d="m285.19,244.45c-3.93,0-7.63-.76-11.1-2.27-3.47-1.51-6.51-3.56-9.1-6.16-2.6-2.59-4.64-5.63-6.16-9.1-1.51-3.48-2.27-7.2-2.27-11.18s.76-7.64,2.27-11.14c1.51-3.5,3.56-6.54,6.16-9.14,2.59-2.6,5.63-4.64,9.1-6.16,3.47-1.51,7.18-2.27,11.1-2.27s7.7.76,11.18,2.27c3.47,1.51,6.51,3.56,9.1,6.16,2.59,2.59,4.64,5.64,6.16,9.14,1.51,3.5,2.27,7.21,2.27,11.14s-.76,7.7-2.27,11.18c-1.51,3.47-3.56,6.51-6.16,9.1-2.59,2.6-5.63,4.64-9.1,6.16s-7.2,2.27-11.18,2.27Zm.04-47.5c-2.51,0-4.86.52-7.05,1.55-2.19,1.03-4.1,2.4-5.73,4.12-1.63,1.71-2.93,3.71-3.88,6-.95,2.29-1.43,4.67-1.43,7.14s.48,4.91,1.43,7.17c.96,2.27,2.25,4.27,3.88,6,1.63,1.74,3.54,3.12,5.73,4.16,2.18,1.03,4.53,1.55,7.05,1.55s4.86-.51,7.04-1.55c2.19-1.03,4.09-2.42,5.73-4.16,1.64-1.74,2.93-3.74,3.88-6,.96-2.27,1.43-4.66,1.43-7.17s-.48-4.85-1.43-7.14c-.95-2.29-2.25-4.29-3.88-6-1.63-1.71-3.54-3.08-5.73-4.12-2.18-1.03-4.53-1.55-7.04-1.55Z"/><path class="cls-2" d="m363.06,234.03v9.37h-39.8v-55.28h10.57v45.92h29.23Z"/><path class="cls-2" d="m380.28,197.48v13.82h26.74v9.59h-26.74v12.99h30.14v9.52h-40.71v-55.28h40.71v9.37h-30.14Z"/><path class="cls-2" d="m196.23,334.03h-21.79v-55.28h21.79c7.89,0,14.38,2.32,19.46,6.95,2.72,2.47,4.76,5.45,6.14,8.95,1.38,3.5,2.08,7.41,2.08,11.74s-.69,8.32-2.08,11.82c-1.38,3.5-3.43,6.48-6.14,8.95-2.46,2.27-5.34,3.98-8.64,5.14-3.29,1.16-6.9,1.74-10.82,1.74Zm-11.22-9.37h11.25c1.96,0,3.95-.23,5.96-.68,2.01-.45,3.84-1.35,5.48-2.68s2.98-3.18,4.04-5.55c1.06-2.37,1.59-5.46,1.59-9.29s-.53-6.94-1.59-9.33c-1.06-2.39-2.42-4.24-4.08-5.55s-3.5-2.19-5.51-2.64-3.98-.68-5.89-.68h-11.25v36.4Z"/><path class="cls-2" d="m242.03,288.11v13.82h26.73v9.59h-26.73v12.99h30.13v9.52h-40.71v-55.28h40.71v9.37h-30.13Z"/><path class="cls-2" d="m280.85,326.78l5.74-8.46c2.77,1.92,5.63,3.56,8.57,4.95,2.94,1.39,6.03,2.08,9.25,2.08,1.71,0,3.22-.21,4.53-.64,1.31-.43,2.42-.98,3.32-1.66.91-.68,1.59-1.46,2.04-2.34s.68-1.75.68-2.61c0-1.1-.34-2.05-1.02-2.83-.68-.78-1.59-1.42-2.72-1.93s-2.47-.93-4-1.28c-1.54-.35-3.13-.68-4.8-.98-1.11-.2-2.39-.44-3.85-.72-1.46-.28-2.97-.65-4.53-1.13s-3.1-1.11-4.61-1.89-2.87-1.76-4.08-2.94c-1.21-1.18-2.18-2.59-2.91-4.23-.73-1.64-1.1-3.56-1.1-5.78,0-3.22.65-5.9,1.96-8.04,1.31-2.14,2.98-3.83,5.02-5.06,2.04-1.23,4.31-2.1,6.8-2.61,2.49-.5,4.9-.76,7.21-.76s4.38.15,6.19.45c1.81.3,3.5.74,5.06,1.32,1.56.58,3.08,1.31,4.57,2.19s3.08,1.92,4.8,3.13l-5.89,8.31c-2.62-1.81-5.13-3.2-7.55-4.15-2.42-.96-4.96-1.43-7.63-1.43-.91,0-1.94.11-3.1.34-1.16.23-2.25.59-3.29,1.1-1.03.5-1.89,1.15-2.57,1.92-.68.78-1.02,1.73-1.02,2.83s.4,2.04,1.21,2.79c.81.76,1.84,1.39,3.1,1.89s2.65.93,4.16,1.28c1.51.35,2.97.7,4.38,1.06,1.06.25,2.3.5,3.74.76,1.43.25,2.92.6,4.45,1.06s3.06,1.06,4.57,1.81c1.51.76,2.86,1.73,4.04,2.91,1.18,1.18,2.14,2.64,2.87,4.38.73,1.74,1.1,3.84,1.1,6.31,0,2.87-.5,5.36-1.51,7.48-1.01,2.11-2.44,3.86-4.3,5.25-1.87,1.38-4.08,2.43-6.65,3.13-2.57.7-5.41,1.06-8.53,1.06-2.87,0-5.4-.22-7.59-.64-2.19-.43-4.19-1.01-6-1.74-1.81-.73-3.52-1.6-5.13-2.61-1.61-1.01-3.27-2.11-4.99-3.32Z"/><path class="cls-2" d="m59.6,421.65l28.25-55.21h1.06l28.24,55.21h-11.48l-4.3-8.69h-26.05l-4.23,8.69h-11.48Zm20.85-17.9h15.79l-7.86-16.69-7.93,16.69Z"/><path class="cls-2" d="m164.13,381.74c0,1.11-.23,2.3-.68,3.56-.45,1.26-1.07,2.42-1.85,3.48-.78,1.06-1.73,1.96-2.83,2.69-1.11.73-2.32,1.12-3.62,1.17,1.36.1,2.7.49,4.04,1.17s2.53,1.59,3.59,2.75c1.06,1.15,1.93,2.49,2.61,3.99.68,1.51,1.02,3.11,1.02,4.82,0,3.01-.45,5.56-1.36,7.65-.91,2.08-2.14,3.76-3.7,5.04-1.56,1.28-3.39,2.2-5.48,2.75-2.09.55-4.32.83-6.68.83h-25.53v-55.28h24.32c2.21,0,4.3.22,6.27.64,1.97.43,3.68,1.21,5.14,2.35,1.46,1.14,2.62,2.7,3.47,4.7s1.28,4.56,1.28,7.69Zm-29.91,7.13h12.99c1.06,0,1.97-.2,2.76-.61.78-.41,1.43-.94,1.96-1.6s.93-1.41,1.21-2.24c.28-.84.41-1.66.41-2.47s-.15-1.59-.45-2.35c-.3-.76-.7-1.42-1.21-1.97-.5-.56-1.09-1.01-1.77-1.37s-1.4-.53-2.15-.53h-13.74v13.14Zm14.95,23.41c.91,0,1.76-.21,2.57-.64.81-.43,1.51-1.01,2.11-1.74.61-.73,1.08-1.54,1.44-2.42.35-.88.53-1.78.53-2.68,0-1.86-.69-3.42-2.08-4.68s-3.29-1.89-5.7-1.89h-13.82v14.05h14.95Z"/><path class="cls-2" d="m186.71,375.73v13.82h26.74v9.59h-26.74v12.99h30.14v9.52h-40.71v-55.28h40.71v9.37h-30.14Z"/><path class="cls-2" d="m239.81,421.65h-10.57v-55.21h10.57v55.21Z"/><path class="cls-2" d="m293.2,412.28v9.37h-39.8v-55.28h10.57v45.92h29.23Z"/><path class="cls-2" d="m339.65,412.28v9.37h-39.8v-55.28h10.57v45.92h29.23Z"/><path class="cls-2" d="m356.87,375.73v13.82h26.73v9.59h-26.73v12.99h30.13v9.52h-40.71v-55.28h40.71v9.37h-30.13Z"/><path class="cls-2" d="m395.69,414.4l5.74-8.46c2.77,1.92,5.63,3.56,8.57,4.95,2.94,1.39,6.03,2.08,9.25,2.08,1.71,0,3.22-.21,4.53-.64,1.31-.43,2.42-.98,3.32-1.66s1.59-1.46,2.04-2.34c.45-.88.68-1.75.68-2.61,0-1.1-.34-2.05-1.02-2.83-.68-.78-1.59-1.42-2.72-1.93s-2.47-.93-4-1.28c-1.54-.35-3.13-.68-4.8-.98-1.11-.2-2.39-.44-3.85-.72-1.46-.28-2.97-.65-4.53-1.13s-3.1-1.11-4.61-1.89c-1.51-.78-2.87-1.76-4.08-2.94-1.21-1.18-2.18-2.59-2.91-4.23-.73-1.64-1.1-3.56-1.1-5.78,0-3.22.65-5.9,1.96-8.04,1.31-2.14,2.98-3.83,5.02-5.06,2.04-1.23,4.31-2.1,6.8-2.61,2.49-.5,4.9-.76,7.21-.76s4.38.15,6.19.45c1.81.3,3.5.74,5.06,1.32,1.56.58,3.08,1.31,4.57,2.19s3.08,1.92,4.8,3.13l-5.89,8.31c-2.62-1.81-5.13-3.2-7.55-4.15-2.42-.96-4.96-1.43-7.63-1.43-.91,0-1.94.11-3.1.34-1.16.23-2.25.59-3.29,1.1s-1.89,1.15-2.57,1.92c-.68.78-1.02,1.73-1.02,2.83s.4,2.04,1.21,2.79c.81.76,1.84,1.39,3.1,1.89s2.65.93,4.16,1.28c1.51.35,2.97.7,4.38,1.06,1.06.25,2.3.5,3.74.76,1.43.25,2.92.6,4.45,1.06,1.54.45,3.06,1.06,4.57,1.81s2.86,1.73,4.04,2.91c1.18,1.18,2.14,2.64,2.87,4.38.73,1.74,1.1,3.84,1.1,6.31,0,2.87-.5,5.36-1.51,7.48-1.01,2.11-2.44,3.86-4.3,5.25-1.87,1.38-4.08,2.43-6.65,3.13-2.57.7-5.41,1.06-8.53,1.06-2.87,0-5.4-.22-7.59-.64-2.19-.43-4.19-1.01-6-1.74-1.81-.73-3.52-1.6-5.13-2.61-1.61-1.01-3.27-2.11-4.99-3.32Z"/></svg>